PathFileType	4	(X/Y/Z)	 0.11m3min.trc
DataRate	CameraRate	NumFrames	NumMarkers	Units	OrigDataRate	OrigDataStartFrame	OrigNumFrames
200	200	7	43	m	200	1	1000
Frame#	Time	C7			LSH			RSH			MAN			RASI			LASI			HIPR			HIPL			RPSI			LPSI			COX			RTHI1			RTHI2			RTHI3			RTHI4			RLKN			RMKN			RSHA1			RSHA2			RSHA3			RSHA4			RLMAL			RMMAL			RHEEL			RMET5			RMET1			RTOE			LTHI1			LTHI2			LTHI3			LTHI4			LLKN			LMKN			LSHA1			LSHA2			LSHA3			LSHA4			LLMAL			LMMAL			LHEEL			LMET5			LMET1			LTOE			
		X1	Y1	Z1	X2	Y2	Z2	X3	Y3	Z3	X4	Y4	Z4	X5	Y5	Z5	X6	Y6	Z6	X7	Y7	Z7	X8	Y8	Z8	X9	Y9	Z9	X10	Y10	Z10	X11	Y11	Z11	X12	Y12	Z12	X13	Y13	Z13	X14	Y14	Z14	X15	Y15	Z15	X16	Y16	Z16	X17	Y17	Z17	X18	Y18	Z18	X19	Y19	Z19	X20	Y20	Z20	X21	Y21	Z21	X22	Y22	Z22	X23	Y23	Z23	X24	Y24	Z24	X25	Y25	Z25	X26	Y26	Z26	X27	Y27	Z27	X28	Y28	Z28	X29	Y29	Z29	X30	Y30	Z30	X31	Y31	Z31	X32	Y32	Z32	X33	Y33	Z33	X34	Y34	Z34	X35	Y35	Z35	X36	Y36	Z36	X37	Y37	Z37	X38	Y38	Z38	X39	Y39	Z39	X40	Y40	Z40	X41	Y41	Z41	X42	Y42	Z42	X43	Y43	Z43	
1	0.0050	-0.317712	1.378710	-0.503872	-0.234905	1.367868	-0.656345	-0.252688	1.357499	-0.346149	-0.197612	1.325911	-0.497836	-0.176035	0.902817	-0.385773	-0.179536	0.898249	-0.621021	-0.220393	0.970250	-0.362363	-0.213675	0.965552	-0.640045	-0.342700	0.943894	-0.465502	-0.343348	0.941116	-0.537397	-0.339532	0.949321	-0.499766	-0.288381	0.724088	-0.323198	-0.270401	0.667201	-0.316164	-0.208311	0.683692	-0.308981	-0.218225	0.744317	-0.315130	-0.238650	0.462850	-0.324364	-0.214567	0.447425	-0.441843	-0.338532	0.306069	-0.324328	-0.350894	0.265262	-0.335713	-0.292205	0.250982	-0.321690	-0.287632	0.290849	-0.313202	-0.360597	0.126501	-0.348695	-0.328109	0.126836	-0.421459	-0.407692	0.122677	-0.394142	-0.282182	0.035979	-0.321196	-0.237701	0.041102	-0.386603	-0.218622	0.033675	-0.382516	-0.284208	0.740584	-0.682836	-0.263300	0.683568	-0.694126	-0.200336	0.700645	-0.693545	-0.213983	0.758321	-0.683417	-0.246942	0.463587	-0.693180	-0.215752	0.453635	-0.575640	-0.348837	0.314961	-0.697829	-0.357157	0.275935	-0.693682	-0.298294	0.264612	-0.704951	-0.295053	0.306659	-0.712875	-0.364343	0.139365	-0.689332	-0.346837	0.138784	-0.612429	-0.419996	0.139534	-0.645879	-0.296889	0.039500	-0.699651	-0.260415	0.040431	-0.630931	-0.245245	0.035583	-0.633939	
2	0.0100	-0.317637	1.372908	-0.504043	-0.234343	1.362019	-0.656435	-0.252761	1.351695	-0.345889	-0.197210	1.319940	-0.497765	-0.176538	0.896737	-0.385548	-0.179942	0.891950	-0.620981	-0.221031	0.964187	-0.362050	-0.214115	0.959165	-0.640235	-0.343021	0.937597	-0.465584	-0.343831	0.934834	-0.537417	-0.340133	0.942924	-0.499869	-0.288318	0.717864	-0.323118	-0.270071	0.661025	-0.316139	-0.208078	0.677745	-0.309021	-0.218187	0.738319	-0.315248	-0.237275	0.456514	-0.324121	-0.214786	0.441260	-0.441391	-0.339425	0.301507	-0.323360	-0.352796	0.261067	-0.335137	-0.294038	0.245517	-0.322592	-0.288924	0.285053	-0.313503	-0.363962	0.123312	-0.348771	-0.332973	0.123837	-0.422167	-0.411036	0.119499	-0.393183	-0.284409	0.035437	-0.321281	-0.239322	0.041446	-0.386787	-0.219807	0.033580	-0.382553	-0.284078	0.734115	-0.682932	-0.263095	0.677162	-0.694230	-0.200149	0.694225	-0.693554	-0.213857	0.751846	-0.683367	-0.246010	0.456962	-0.693932	-0.216436	0.447049	-0.576556	-0.351367	0.310042	-0.699309	-0.360274	0.271204	-0.694620	-0.301401	0.258919	-0.704903	-0.297505	0.300796	-0.713497	-0.368063	0.135834	-0.689445	-0.353035	0.136228	-0.612341	-0.424024	0.136076	-0.646767	-0.299720	0.039405	-0.700374	-0.261837	0.040729	-0.631190	-0.246426	0.035627	-0.634309	
3	0.0150	-0.317522	1.367298	-0.504230	-0.233772	1.356266	-0.656645	-0.252899	1.346025	-0.345501	-0.196690	1.314086	-0.497676	-0.177016	0.890620	-0.385257	-0.180282	0.885679	-0.620940	-0.221720	0.958038	-0.361636	-0.214551	0.952721	-0.640502	-0.343411	0.931137	-0.465662	-0.344377	0.928441	-0.537427	-0.340821	0.936338	-0.499934	-0.288273	0.711597	-0.322998	-0.269755	0.654858	-0.315969	-0.207858	0.671817	-0.308795	-0.218184	0.732338	-0.315189	-0.235920	0.450373	-0.323983	-0.215001	0.435020	-0.440812	-0.340006	0.297111	-0.322587	-0.354065	0.256901	-0.334476	-0.295313	0.240483	-0.323219	-0.289588	0.279864	-0.313813	-0.366405	0.119938	-0.348550	-0.336878	0.120744	-0.422689	-0.414146	0.115665	-0.392464	-0.285422	0.034719	-0.320846	-0.240239	0.041514	-0.386638	-0.220378	0.033490	-0.382491	-0.284010	0.727575	-0.683057	-0.262986	0.670673	-0.694422	-0.200028	0.687733	-0.693770	-0.213746	0.745317	-0.683496	-0.245177	0.450533	-0.694649	-0.217258	0.440347	-0.577564	-0.353308	0.305708	-0.700411	-0.362715	0.267009	-0.695587	-0.303789	0.254027	-0.705018	-0.299409	0.295840	-0.713899	-0.370855	0.132183	-0.689649	-0.357608	0.133590	-0.612345	-0.427704	0.132056	-0.647750	-0.300797	0.038751	-0.700790	-0.262337	0.040749	-0.631164	-0.246753	0.035594	-0.634202	
4	0.0200	-0.317406	1.361771	-0.504425	-0.233214	1.350578	-0.656893	-0.253043	1.340412	-0.345077	-0.196141	1.308284	-0.497586	-0.177491	0.884531	-0.384953	-0.180646	0.879446	-0.620906	-0.222414	0.951892	-0.361185	-0.214991	0.946281	-0.640807	-0.343874	0.924645	-0.465722	-0.344949	0.922035	-0.537439	-0.341540	0.929732	-0.499998	-0.288260	0.705433	-0.322836	-0.269468	0.648794	-0.315755	-0.207661	0.665998	-0.308558	-0.218214	0.726467	-0.315104	-0.234656	0.444420	-0.323851	-0.215195	0.428844	-0.440250	-0.340462	0.292738	-0.321817	-0.355209	0.252761	-0.333796	-0.296444	0.235530	-0.323823	-0.290135	0.274716	-0.314127	-0.368771	0.116526	-0.348351	-0.340605	0.117587	-0.423198	-0.417157	0.111825	-0.391784	-0.286470	0.034098	-0.320486	-0.241182	0.041594	-0.386515	-0.220890	0.033416	-0.382424	-0.284005	0.721074	-0.683224	-0.262947	0.664224	-0.694674	-0.199984	0.681269	-0.694058	-0.213699	0.738818	-0.683690	-0.244429	0.444323	-0.695348	-0.218061	0.433698	-0.578555	-0.355006	0.301447	-0.701594	-0.364898	0.262878	-0.696620	-0.305936	0.249214	-0.705172	-0.301055	0.290943	-0.714317	-0.373597	0.128549	-0.689862	-0.361965	0.130865	-0.612354	-0.431279	0.128073	-0.648729	-0.302168	0.038172	-0.701415	-0.262981	0.040837	-0.631224	-0.247230	0.035573	-0.634216	
5	0.0250	-0.317271	1.356464	-0.504635	-0.232659	1.345036	-0.657245	-0.253214	1.334946	-0.344547	-0.195514	1.302642	-0.497487	-0.177946	0.878488	-0.384599	-0.181006	0.873298	-0.620891	-0.223134	0.945728	-0.360634	-0.215433	0.939834	-0.641196	-0.344488	0.918045	-0.465755	-0.345592	0.915567	-0.537452	-0.342337	0.923029	-0.500043	-0.288308	0.699452	-0.322597	-0.269239	0.642925	-0.315445	-0.207520	0.660393	-0.308197	-0.218320	0.720805	-0.314904	-0.233534	0.438813	-0.323784	-0.215368	0.422793	-0.439698	-0.340668	0.288507	-0.321149	-0.355945	0.248697	-0.333093	-0.297191	0.230886	-0.324302	-0.290303	0.269933	-0.314453	-0.370651	0.113028	-0.348080	-0.343700	0.114360	-0.423623	-0.419918	0.107702	-0.391275	-0.287044	0.033483	-0.319988	-0.241876	0.041620	-0.386285	-0.221127	0.033360	-0.382321	-0.284129	0.714645	-0.683465	-0.263053	0.657834	-0.695017	-0.200082	0.674869	-0.694513	-0.213768	0.732396	-0.684069	-0.243851	0.438522	-0.696001	-0.218852	0.427137	-0.579546	-0.356175	0.297526	-0.702679	-0.366505	0.259066	-0.697704	-0.307527	0.244844	-0.705402	-0.302184	0.286520	-0.714612	-0.375870	0.124893	-0.690111	-0.365395	0.128030	-0.612410	-0.434548	0.123909	-0.649702	-0.302959	0.037496	-0.702008	-0.263356	0.040856	-0.631215	-0.247432	0.035517	-0.634121	
6	0.0300	-0.317136	1.351423	-0.504852	-0.232104	1.339701	-0.657686	-0.253415	1.329698	-0.343943	-0.194821	1.297192	-0.497391	-0.178388	0.872562	-0.384203	-0.181381	0.867286	-0.620916	-0.223869	0.939596	-0.359992	-0.215884	0.933415	-0.641678	-0.345323	0.911389	-0.465739	-0.346333	0.909070	-0.537476	-0.343205	0.916293	-0.500084	-0.288447	0.693839	-0.322276	-0.269119	0.637412	-0.315034	-0.207470	0.655161	-0.307813	-0.218524	0.715496	-0.314636	-0.232639	0.433680	-0.323760	-0.215547	0.417065	-0.439255	-0.340653	0.284423	-0.320507	-0.356414	0.244761	-0.332414	-0.297634	0.226496	-0.324753	-0.290258	0.265374	-0.314790	-0.372322	0.109517	-0.347935	-0.346337	0.111068	-0.424053	-0.422391	0.103640	-0.390889	-0.287460	0.032902	-0.319568	-0.242408	0.041635	-0.386103	-0.221230	0.033309	-0.382208	-0.284439	0.708428	-0.683819	-0.263346	0.651635	-0.695427	-0.200377	0.668671	-0.695083	-0.214043	0.726187	-0.684602	-0.243506	0.433298	-0.696612	-0.219518	0.420878	-0.580459	-0.356859	0.293792	-0.703855	-0.367589	0.255464	-0.698840	-0.308640	0.240719	-0.705618	-0.302799	0.282298	-0.714882	-0.378016	0.121320	-0.690361	-0.368308	0.125038	-0.612468	-0.437491	0.119924	-0.650608	-0.303527	0.036674	-0.702593	-0.263586	0.040845	-0.631216	-0.247489	0.035468	-0.633995	
7	0.0350	-0.316990	1.346753	-0.505073	-0.231555	1.334645	-0.658216	-0.253611	1.324688	-0.343267	-0.194092	1.292034	-0.497293	-0.178811	0.866842	-0.383749	-0.181773	0.861487	-0.621014	-0.224624	0.933568	-0.359242	-0.216347	0.927086	-0.642260	-0.346366	0.904728	-0.465696	-0.347202	0.902568	-0.537507	-0.344159	0.909617	-0.500109	-0.288710	0.688733	-0.321877	-0.269137	0.632399	-0.314594	-0.207550	0.650410	-0.307422	-0.218846	0.710670	-0.314301	-0.232011	0.429079	-0.323812	-0.215767	0.411868	-0.439010	-0.340540	0.280559	-0.320019	-0.356723	0.241027	-0.331849	-0.297900	0.222453	-0.325217	-0.290103	0.261135	-0.315203	-0.373767	0.106098	-0.347950	-0.348538	0.107858	-0.424512	-0.424570	0.099690	-0.390741	-0.287825	0.032415	-0.319244	-0.242885	0.041643	-0.385920	-0.221258	0.033287	-0.382064	-0.284997	0.702568	-0.684258	-0.263861	0.645787	-0.695865	-0.200905	0.662876	-0.695738	-0.214586	0.720385	-0.685289	-0.243395	0.428723	-0.697129	-0.220059	0.415123	-0.581239	-0.357220	0.290274	-0.705021	-0.368331	0.252060	-0.699934	-0.309444	0.236822	-0.705774	-0.303091	0.278277	-0.715079	-0.379969	0.117879	-0.690565	-0.370740	0.121998	-0.612503	-0.440114	0.116093	-0.651364	-0.304154	0.036001	-0.703237	-0.263880	0.040860	-0.631246	-0.247636	0.035412	-0.633983	
